<?xml version="1.0" standalone="no"?>
<!DOCTYPE svg PUBLIC "-//W3C//DTD SVG 20010904//EN"
 "http://www.w3.org/TR/2001/REC-SVG-20010904/DTD/svg10.dtd">
<svg version="1.0" xmlns="http://www.w3.org/2000/svg"
 width="700.000000pt" height="700.000000pt" viewBox="0 0 700.000000 700.000000"
 preserveAspectRatio="xMidYMid meet">
<metadata>
Created by potrace 1.14, written by Peter Selinger 2001-2017
</metadata>
<g transform="translate(0.000000,700.000000) scale(0.100000,-0.100000)"
fill="#000000" stroke="none">
<path d="M3290 6398 c-113 -114 -208 -208 -212 -208 -4 0 -114 72 -245 159
-131 88 -239 156 -241 151 -2 -4 9 -66 23 -136 15 -71 29 -140 31 -154 3 -14
14 -70 25 -125 12 -55 23 -111 25 -125 3 -14 10 -52 17 -85 l12 -60 775 0 775
0 67 330 c37 182 66 337 65 347 -1 12 -50 -16 -187 -108 -102 -69 -211 -141
-243 -160 l-58 -36 -210 208 c-115 115 -210 209 -212 209 -1 0 -94 -93 -207
-207z"/>
<path d="M2585 5532 c-22 -51 -64 -252 -71 -334 l-7 -75 109 -36 c175 -57 406
-111 559 -131 194 -24 496 -25 655 -2 14 2 45 7 70 10 157 22 375 79 548 143
l44 16 -6 69 c-7 85 -41 254 -65 322 l-17 51 -903 0 -903 0 -13 -33z"/>
<path d="M2180 4953 c-1050 -508 -1390 -720 -1558 -973 -112 -169 -115 -323
-9 -434 40 -43 134 -103 218 -140 35 -15 78 -34 94 -42 98 -44 441 -136 590
-158 22 -4 47 -8 55 -11 8 -2 42 -7 75 -11 33 -3 69 -8 80 -9 11 -2 26 -4 32
-4 25 -2 -160 -281 -380 -571 -77 -102 -143 -187 -146 -190 -3 -3 -19 -23 -36
-45 -16 -22 -32 -42 -35 -45 -3 -3 -19 -23 -35 -45 -17 -22 -33 -42 -36 -45
-3 -3 -54 -69 -112 -147 -276 -371 -393 -602 -434 -858 -11 -73 -8 -288 6
-328 19 -55 65 -103 119 -124 44 -17 103 -18 982 -18 l935 0 53 24 c77 35 136
106 216 262 133 259 171 328 279 514 62 107 193 312 207 325 3 3 24 30 47 60
58 76 98 112 119 108 25 -4 131 -132 218 -263 102 -155 191 -306 308 -528 170
-324 198 -373 236 -411 34 -36 90 -70 136 -84 11 -4 437 -7 945 -9 886 -2 926
-1 974 17 108 41 139 101 142 271 6 384 -137 671 -672 1339 -259 325 -582 788
-551 791 290 23 743 141 958 249 224 113 297 228 253 397 -38 148 -145 280
-353 437 -52 39 -126 91 -165 115 -38 24 -86 54 -105 66 -168 105 -1103 576
-1116 562 -2 -2 -168 -498 -370 -1102 -201 -604 -370 -1110 -376 -1124 -9 -24
-19 -8 -118 191 l-108 218 -119 -355 c-65 -195 -120 -355 -123 -355 -3 0 -56
154 -119 343 -62 188 -117 345 -120 350 -4 4 -54 -87 -112 -203 -57 -115 -106
-210 -109 -210 -4 0 -27 65 -36 100 0 3 -4 12 -7 20 -7 17 -308 919 -312 935
-1 6 -5 17 -8 25 -3 8 -93 275 -198 593 -106 317 -195 577 -198 576 -3 0 -49
-21 -101 -46z"/>
<path d="M2842 4113 c132 -395 241 -719 243 -721 2 -2 49 88 105 200 56 112
105 207 109 211 5 5 45 -103 90 -240 45 -136 86 -256 91 -265 6 -10 10 -25 10
-33 0 -8 4 -15 9 -15 7 0 35 74 57 155 2 6 34 101 71 213 l68 202 109 -216
c59 -118 110 -214 112 -211 2 2 111 325 242 718 l238 715 -146 -37 c-163 -41
-349 -75 -485 -86 -162 -14 -548 -6 -615 12 -8 2 -35 6 -60 9 -25 3 -92 15
-150 26 -133 27 -123 24 -234 54 -51 14 -96 26 -98 26 -3 0 103 -323 234 -717z"/>
</g>
</svg>
